REM DIRINDEX 1\2,1\3,1\4,1\6,1\5\7,1\5\8
REM DIRNAME folder01,folder02,folder03,folder04,folder05,folder06,folder07,folder08
TITLE ""
FILE "DB4500_5th_6C_37.mp3" MP3
  TRACK 01 AUDIO
    TITLE "0:"
    INDEX 01 00:00:00
  TRACK 02 AUDIO
    TITLE "2:cjc114_4571"
    INDEX 01 00:00:03
  TRACK 03 AUDIO
    TITLE "0:"
    INDEX 01 00:01:15
  TRACK 04 AUDIO
    TITLE "3:cjc114_4572"
    INDEX 01 00:01:38
  TRACK 05 AUDIO
    TITLE "0:"
    INDEX 01 00:04:74
  TRACK 06 AUDIO
    TITLE "4:cjc114_4573"
    INDEX 01 00:05:20
  TRACK 07 AUDIO
    TITLE "0:"
    INDEX 01 00:08:40
  TRACK 08 AUDIO
    TITLE "2:cjc114_4574"
    INDEX 01 00:09:06
  TRACK 09 AUDIO
    TITLE "0:"
    INDEX 01 00:10:10
  TRACK 10 AUDIO
    TITLE "3:cjc114_4575"
    INDEX 01 00:10:31
  TRACK 11 AUDIO
    TITLE "0:"
    INDEX 01 00:11:56
  TRACK 12 AUDIO
    TITLE "4:cjc114_4576"
    INDEX 01 00:12:03
  TRACK 13 AUDIO
    TITLE "0:"
    INDEX 01 00:15:13
  TRACK 14 AUDIO
    TITLE "2:cjc114_4577"
    INDEX 01 00:15:56
  TRACK 15 AUDIO
    TITLE "0:"
    INDEX 01 00:16:61
  TRACK 16 AUDIO
    TITLE "3:cjc114_4578"
    INDEX 01 00:17:08
  TRACK 17 AUDIO
    TITLE "0:"
    INDEX 01 00:18:37
  TRACK 18 AUDIO
    TITLE "4:cjc114_4579"
    INDEX 01 00:18:58
  TRACK 19 AUDIO
    TITLE "0:"
    INDEX 01 00:21:68
  TRACK 20 AUDIO
    TITLE "2:cjc114_4580"
    INDEX 01 00:22:40
  TRACK 21 AUDIO
    TITLE "0:"
    INDEX 01 00:23:48
  TRACK 22 AUDIO
    TITLE "3:cjc114_4581"
    INDEX 01 00:23:69
  TRACK 23 AUDIO
    TITLE "0:"
    INDEX 01 00:25:07
  TRACK 24 AUDIO
    TITLE "4:cjc114_4582"
    INDEX 01 00:25:31
  TRACK 25 AUDIO
    TITLE "0:"
    INDEX 01 00:29:13
  TRACK 26 AUDIO
    TITLE "2:cjc114_4583"
    INDEX 01 00:29:60
  TRACK 27 AUDIO
    TITLE "0:"
    INDEX 01 00:30:63
  TRACK 28 AUDIO
    TITLE "3:cjc114_4584"
    INDEX 01 00:31:10
  TRACK 29 AUDIO
    TITLE "0:"
    INDEX 01 00:32:29
  TRACK 30 AUDIO
    TITLE "4:cjc114_4585"
    INDEX 01 00:32:52
  TRACK 31 AUDIO
    TITLE "0:"
    INDEX 01 00:36:40
  TRACK 32 AUDIO
    TITLE "2:cjc114_4586"
    INDEX 01 00:37:12
  TRACK 33 AUDIO
    TITLE "0:"
    INDEX 01 00:38:18
  TRACK 34 AUDIO
    TITLE "3:cjc114_4587"
    INDEX 01 00:38:31
  TRACK 35 AUDIO
    TITLE "0:"
    INDEX 01 00:39:37
  TRACK 36 AUDIO
    TITLE "4:cjc114_4588"
    INDEX 01 00:39:51
  TRACK 37 AUDIO
    TITLE "0:"
    INDEX 01 00:42:39
  TRACK 38 AUDIO
    TITLE "2:cjc114_4589"
    INDEX 01 00:43:05
  TRACK 39 AUDIO
    TITLE "0:"
    INDEX 01 00:44:09
  TRACK 40 AUDIO
    TITLE "3:cjc114_4590"
    INDEX 01 00:44:22
  TRACK 41 AUDIO
    TITLE "0:"
    INDEX 01 00:45:35
  TRACK 42 AUDIO
    TITLE "4:cjc114_4591"
    INDEX 01 00:45:51
  TRACK 43 AUDIO
    TITLE "0:"
    INDEX 01 00:49:49
  TRACK 44 AUDIO
    TITLE "2:cjc114_4592"
    INDEX 01 00:50:13
  TRACK 45 AUDIO
    TITLE "0:"
    INDEX 01 00:51:24
  TRACK 46 AUDIO
    TITLE "3:cjc114_4593"
    INDEX 01 00:51:40
  TRACK 47 AUDIO
    TITLE "0:"
    INDEX 01 00:52:37
  TRACK 48 AUDIO
    TITLE "4:cjc114_4594"
    INDEX 01 00:52:49
  TRACK 49 AUDIO
    TITLE "0:"
    INDEX 01 00:56:49
  TRACK 50 AUDIO
    TITLE "2:cjc114_4595"
    INDEX 01 00:57:11
  TRACK 51 AUDIO
    TITLE "0:"
    INDEX 01 00:59:53
  TRACK 52 AUDIO
    TITLE "3:cjc114_4596"
    INDEX 01 00:59:69
  TRACK 53 AUDIO
    TITLE "0:"
    INDEX 01 01:00:74
  TRACK 54 AUDIO
    TITLE "4:cjc114_4597"
    INDEX 01 01:01:17
  TRACK 55 AUDIO
    TITLE "0:"
    INDEX 01 01:04:03
  TRACK 56 AUDIO
    TITLE "2:cjc114_4598"
    INDEX 01 01:04:41
  TRACK 57 AUDIO
    TITLE "0:"
    INDEX 01 01:05:48
  TRACK 58 AUDIO
    TITLE "3:cjc114_4599"
    INDEX 01 01:05:62
  TRACK 59 AUDIO
    TITLE "0:"
    INDEX 01 01:06:67
  TRACK 60 AUDIO
    TITLE "4:cjc114_4600"
    INDEX 01 01:07:06
  TRACK 61 AUDIO
    TITLE "0:"
    INDEX 01 01:10:37
  TRACK 62 AUDIO
    TITLE "2:cjc114_4601"
    INDEX 01 01:11:02
  TRACK 63 AUDIO
    TITLE "0:"
    INDEX 01 01:12:15
  TRACK 64 AUDIO
    TITLE "3:cjc114_4602"
    INDEX 01 01:12:28
  TRACK 65 AUDIO
    TITLE "0:"
    INDEX 01 01:13:36
  TRACK 66 AUDIO
    TITLE "4:cjc114_4603"
    INDEX 01 01:13:47
  TRACK 67 AUDIO
    TITLE "0:"
    INDEX 01 01:17:43
  TRACK 68 AUDIO
    TITLE "2:cjc114_4604"
    INDEX 01 01:18:06
  TRACK 69 AUDIO
    TITLE "0:"
    INDEX 01 01:19:01
  TRACK 70 AUDIO
    TITLE "3:cjc114_4605"
    INDEX 01 01:19:17
  TRACK 71 AUDIO
    TITLE "0:"
    INDEX 01 01:20:34
  TRACK 72 AUDIO
    TITLE "4:cjc114_4606"
    INDEX 01 01:20:48
  TRACK 73 AUDIO
    TITLE "0:"
    INDEX 01 01:25:51
  TRACK 74 AUDIO
    TITLE "2:cjc114_4607"
    INDEX 01 01:26:11
  TRACK 75 AUDIO
    TITLE "0:"
    INDEX 01 01:27:28
  TRACK 76 AUDIO
    TITLE "3:cjc114_4608"
    INDEX 01 01:27:44
  TRACK 77 AUDIO
    TITLE "0:"
    INDEX 01 01:28:45
  TRACK 78 AUDIO
    TITLE "4:cjc114_4609"
    INDEX 01 01:28:59
  TRACK 79 AUDIO
    TITLE "0:"
    INDEX 01 01:31:59
  TRACK 80 AUDIO
    TITLE "4:cjc114_4610"
    INDEX 01 01:32:23
  TRACK 81 AUDIO
    TITLE "0:"
    INDEX 01 01:35:39
  TRACK 82 AUDIO
    TITLE "2:cjc114_4611"
    INDEX 01 01:36:01
  TRACK 83 AUDIO
    TITLE "0:"
    INDEX 01 01:37:11
  TRACK 84 AUDIO
    TITLE "3:cjc114_4612"
    INDEX 01 01:37:26
  TRACK 85 AUDIO
    TITLE "0:"
    INDEX 01 01:38:51
  TRACK 86 AUDIO
    TITLE "4:cjc114_4613"
    INDEX 01 01:38:63
  TRACK 87 AUDIO
    TITLE "0:"
    INDEX 01 01:41:56
